<svg width="128px" height="128px" viewBox="0 0 128 128" version="1.1" xmlns="http://www.w3.org/2000/svg" xmlns:xlink="http://www.w3.org/1999/xlink">
    <title>Akaraui Logo</title>
    <g id="akarui-logo" stroke="none" stroke-width="1" fill="none" fill-rule="evenodd">
        <circle fill="#FFF0AE" cx="62.5" cy="62.5" r="62.5"></circle>
        <circle stroke="#3D3D3D" stroke-width="2" fill="#FFFFFF" cx="62.5" cy="66" r="60"></circle>
        <circle fill="#FF7171" cx="67" cy="67" r="61"></circle>
        <path d="M85.1582031,73.3496094 L67.5214844,73.3496094 C66.6100215,84.4238835 61.2552573,92.1712019 51.4570312,96.5917969 C50.2721295,95.04231 48.9049557,93.3789151 47.3554688,91.6015625 C54.1458673,89.0494664 58.4296786,85.3125246 60.2070312,80.390625 C61.8932376,75.5598717 62.7363281,66.8555316 62.7363281,54.2773438 L62.5996094,40.8105469 C62.5996094,39.3522062 62.5768231,37.4153767 62.53125,35 L90.96875,35 L90.96875,89.5507812 C90.96875,92.1484505 90.1484457,93.8346315 88.5078125,94.609375 C86.4114479,95.7031305 82.5605749,96.2727862 76.9550781,96.3183594 C76.271481,93.5839707 75.6562527,91.442065 75.109375,89.8925781 C77.4336054,89.9837244 79.4160074,90.0292969 81.0566406,90.0292969 C83.7910293,90.0292969 85.1582031,89.0722752 85.1582031,87.1582031 L85.1582031,73.3496094 Z M85.1582031,67.9492188 L85.1582031,56.5332031 L68.3417969,56.5332031 L68.2050781,62.2753906 L67.9316406,67.7441406 L67.9316406,67.9492188 L85.1582031,67.9492188 Z M85.1582031,51.1328125 L85.1582031,40.5371094 L68.4785156,40.5371094 C68.4785156,42.0865963 68.4557294,45.618462 68.4101562,51.1328125 L85.1582031,51.1328125 Z M38.5371094,80.8691406 L38.5371094,88.1835938 L33,88.1835938 L33,36.7089844 L55.4902344,36.7089844 L55.4902344,80.8691406 L38.5371094,80.8691406 Z M49.8847656,75.4003906 L49.8847656,60.6347656 L38.5371094,60.6347656 L38.5371094,75.4003906 L49.8847656,75.4003906 Z M49.8847656,55.234375 L49.8847656,42.1777344 L38.5371094,42.1777344 L38.5371094,55.234375 L49.8847656,55.234375 Z"
         fill="#3D3D3D" fill-rule="nonzero"></path>
        <path d="M87.1582031,71.3496094 L69.5214844,71.3496094 C68.6100215,82.4238835 63.2552573,90.1712019 53.4570312,94.5917969 C52.2721295,93.04231 50.9049557,91.3789151 49.3554688,89.6015625 C56.1458673,87.0494664 60.4296786,83.3125246 62.2070312,78.390625 C63.8932376,73.5598717 64.7363281,64.8555316 64.7363281,52.2773438 L64.5996094,38.8105469 C64.5996094,37.3522062 64.5768231,35.4153767 64.53125,33 L92.96875,33 L92.96875,87.5507812 C92.96875,90.1484505 92.1484457,91.8346315 90.5078125,92.609375 C88.4114479,93.7031305 84.5605749,94.2727862 78.9550781,94.3183594 C78.271481,91.5839707 77.6562527,89.442065 77.109375,87.8925781 C79.4336054,87.9837244 81.4160074,88.0292969 83.0566406,88.0292969 C85.7910293,88.0292969 87.1582031,87.0722752 87.1582031,85.1582031 L87.1582031,71.3496094 Z M87.1582031,65.9492188 L87.1582031,54.5332031 L70.3417969,54.5332031 L70.2050781,60.2753906 L69.9316406,65.7441406 L69.9316406,65.9492188 L87.1582031,65.9492188 Z M87.1582031,49.1328125 L87.1582031,38.5371094 L70.4785156,38.5371094 C70.4785156,40.0865963 70.4557294,43.618462 70.4101562,49.1328125 L87.1582031,49.1328125 Z M40.5371094,78.8691406 L40.5371094,86.1835938 L35,86.1835938 L35,34.7089844 L57.4902344,34.7089844 L57.4902344,78.8691406 L40.5371094,78.8691406 Z M51.8847656,73.4003906 L51.8847656,58.6347656 L40.5371094,58.6347656 L40.5371094,73.4003906 L51.8847656,73.4003906 Z M51.8847656,53.234375 L51.8847656,40.1777344 L40.5371094,40.1777344 L40.5371094,53.234375 L51.8847656,53.234375 Z"  fill="#FFF0AE" fill-rule="nonzero"></path>
    </g>
</svg>
