<svg viewBox="0 0 512 524" xmlns="http://www.w3.org/2000/svg"><title>mu</title><path d="M86.26 189.887V138.1c-15.582 15.035-23.93 21.717-45.634 38.98C23.374 155.92 16.14 148.123 0 134.759c52.313-37.866 82.922-69.05 103.513-107.473C108.522 17.819 112.973 8.353 115.2 0l64.557 12.25c-4.453 6.683-4.453 6.683-11.687 20.048-5.566 9.466-10.018 16.705-17.81 28.4h269.914c33.948 0 52.87-1.115 70.122-3.342v61.254c-18.366-1.67-26.157-2.227-54.54-2.784v74.061h21.705c26.156 0 38.4-.557 54.539-3.34v62.367c-16.14-2.784-28.94-3.341-54.54-3.341h-21.703v74.618h11.13c26.156 0 38.4-.557 52.87-2.784v61.254c-14.47-2.784-27.827-3.341-51.757-3.341H68.452c-21.704 0-33.948.557-49.53 3.341v-61.254c15.026 2.227 29.495 2.784 54.539 2.784h12.8v-74.618H62.33c-25.044 0-37.844.557-54.54 3.34v-62.367c16.14 2.784 28.383 3.341 54.54 3.341h23.93zm55.097-74.061v74.061h45.078v-74.061h-45.078zm0 129.747v74.618h45.078v-74.618h-45.078zm95.721 74.618h46.192v-74.618h-46.192v74.618zm0-130.304h46.192v-74.061h-46.192v74.061zm96.279 130.304h47.304v-74.618h-47.304v74.618zm0-130.304h47.304v-74.061h-47.304v74.061zm175.304 297.36l-53.426 33.412c-20.035-46.219-33.948-69.607-66.783-116.383l47.861-23.944c32.278 39.536 48.974 64.595 72.348 106.916zm-151.374 19.49l-60.66 13.365c-8.349-54.015-11.688-69.607-26.157-116.94l53.982-12.25c15.583 43.991 22.818 68.493 32.835 115.826zm-129.113 9.467l-60.661 5.569v-22.831c0-21.16-4.452-71.278-8.348-98.564l53.983-6.125c9.46 50.674 12.8 75.175 15.026 121.951zM55.652 524L7.235 485.577c33.948-33.411 50.087-57.356 69.008-104.132l51.2 25.616C104.626 461.075 90.157 483.906 55.653 524z" fill-rule="nonzero"/></svg>